<svg id="visual" viewBox="0 0 670 65" width="670" height="65" xmlns="http://www.w3.org/2000/svg" xmlns:xlink="http://www.w3.org/1999/xlink" version="1.1"><rect x="0" y="0" width="670" height="65" fill="#fff"></rect><path d="M0 49L12.3 46.8C24.7 44.7 49.3 40.3 74.2 33.8C99 27.3 124 18.7 148.8 14.8C173.7 11 198.3 12 223.2 16.7C248 21.3 273 29.7 297.8 35.7C322.7 41.7 347.3 45.3 372.2 46.3C397 47.3 422 45.7 446.8 40.8C471.7 36 496.3 28 521.2 23.8C546 19.7 571 19.3 595.8 25C620.7 30.7 645.3 42.3 657.7 48.2L670 54L670 66L657.7 66C645.3 66 620.7 66 595.8 66C571 66 546 66 521.2 66C496.3 66 471.7 66 446.8 66C422 66 397 66 372.2 66C347.3 66 322.7 66 297.8 66C273 66 248 66 223.2 66C198.3 66 173.7 66 148.8 66C124 66 99 66 74.2 66C49.3 66 24.7 66 12.3 66L0 66Z" fill="#AB526B" stroke-linecap="round" stroke-linejoin="miter"></path></svg>